<svg width="50" height="50" viewBox="0 0 50 50" fill="none" xmlns="http://www.w3.org/2000/svg">
<rect width="50" height="50" rx="10" fill="white"/>
<g filter="url(#filter0_d_22_9)">
<path d="M40.1371 34.8084H9.86292C8.55793 34.8084 7.5 33.7505 7.5 32.4454V31.9802C7.5 30.6752 8.55793 29.6173 9.86292 29.6173H40.1372C41.4421 29.6173 42.5001 30.6752 42.5001 31.9802V32.4454C42.5 33.7505 41.4421 34.8084 40.1371 34.8084V34.8084Z" fill="#E94444"/>
<path d="M42.4999 31.98V32.4454C42.4999 33.7506 41.4425 34.8088 40.1372 34.8088H38.7545C40.0598 34.8088 41.1172 33.7506 41.1172 32.4454V31.98C41.1172 30.6754 40.0598 29.6173 38.7545 29.6173H40.1372C41.4425 29.6173 42.4999 30.6755 42.4999 31.98Z" fill="#D83131"/>
<path d="M40.1371 34.8083H25.0001H9.86297C9.86297 34.8083 8.81894 39.8497 14.7601 41.8329C15.7778 42.1726 16.8403 42.3308 17.9058 42.3308H25.0001H32.0945C33.16 42.3308 34.2225 42.1726 35.2402 41.8329C41.1812 39.8497 40.1371 34.8083 40.1371 34.8083V34.8083Z" fill="#FE9738"/>
<path d="M35.2399 41.8328C34.222 42.1729 33.1596 42.3313 32.0944 42.3313H30.4906C31.5565 42.3313 32.6189 42.1729 33.6369 41.8328C39.5774 39.8496 38.5333 34.8088 38.5333 34.8088H40.1371C40.1371 34.8088 41.1812 39.8496 35.2399 41.8328V41.8328Z" fill="#FE860A"/>
<path d="M40.1924 30.5586C40.1924 31.7383 38.8216 32.3778 37.9102 31.6288C37.5356 31.3209 37.0931 31.0769 36.3919 31.0769C34.492 31.0769 34.492 32.5819 32.5919 32.5819C30.6919 32.5819 30.6919 31.0769 28.7919 31.0769C26.8919 31.0769 26.8919 32.5819 24.992 32.5819C23.0921 32.5819 23.0921 31.0769 21.1921 31.0769C19.2921 31.0769 19.2921 32.5819 17.3921 32.5819C15.4921 32.5819 15.4921 31.0769 13.5922 31.0769C12.8913 31.0769 12.449 31.3207 12.0744 31.6285C11.1629 32.3776 9.79211 31.7382 9.79211 30.5584V27.7664H40.1923V30.5586H40.1924Z" fill="#BBEC6C"/>
<path d="M40.1927 27.7665V30.5586C40.1927 31.6626 38.9924 32.2933 38.0919 31.7561C38.4897 31.5238 38.7755 31.0978 38.7755 30.5586V27.7665H40.1927Z" fill="#A2E62E"/>
<path d="M9.8075 25.5292V27.7871H13.0665C13.7445 27.7871 14.2942 28.3367 14.2942 29.0147V35.5175C14.2942 36.3844 14.9969 37.0871 15.8637 37.0871C16.7306 37.0871 17.4332 36.3844 17.4332 35.5175V29.0147C17.4332 28.3367 17.9829 27.7871 18.6608 27.7871H40.1925V25.5292H9.8075Z" fill="#FEE45A"/>
<path d="M38.7756 25.5291H40.1929V27.7869H38.7756V25.5291Z" fill="#FEDF30"/>
<path d="M40.1371 25.6837H9.86292C8.55793 25.6837 7.5 24.6259 7.5 23.3208V22.8556C7.5 21.5506 8.55793 20.4927 9.86292 20.4927H40.1372C41.4421 20.4927 42.5001 21.5506 42.5001 22.8556V23.3208C42.5 24.6259 41.4421 25.6837 40.1371 25.6837V25.6837Z" fill="#9E5528"/>
<path d="M42.4999 22.8555V23.3209C42.4999 24.6261 41.4425 25.6836 40.1372 25.6836H38.7545C40.0598 25.6836 41.1172 24.6261 41.1172 23.3209V22.8555C41.1172 21.5509 40.0598 20.4928 38.7545 20.4928H40.1372C41.4425 20.4929 42.4999 21.551 42.4999 22.8555V22.8555Z" fill="#904D24"/>
<path d="M25 7.66931C13.1984 7.8401 9.23319 14.2419 7.92418 17.9616C7.4756 19.2362 8.43199 20.57 9.78318 20.57H25H40.2167C41.5779 20.57 42.522 19.2227 42.068 17.9394C40.7511 14.2165 36.7783 7.83976 25 7.66931V7.66931Z" fill="#FE9738"/>
<path d="M40.2167 20.5701H40.0484C40.5068 20.059 40.6954 19.3148 40.4399 18.5911C39.1226 14.8676 35.1499 8.49127 23.3716 8.32089C20.3246 8.36451 17.7993 8.82427 15.7084 9.54587C18.0795 8.45672 21.1153 7.72524 25 7.66895C36.7783 7.84001 40.7511 14.2164 42.0683 17.9392C42.5216 19.2226 41.5775 20.5701 40.2167 20.5701Z" fill="#FE860A"/>
<path d="M20.1285 13.081C20.0465 13.081 19.9633 13.0612 19.886 13.0195C19.6376 12.8853 19.5452 12.5751 19.6794 12.3268L20.1374 11.4793C20.2716 11.2309 20.5818 11.1384 20.8301 11.2726C21.0785 11.4068 21.1709 11.717 21.0368 11.9653L20.5787 12.8129C20.4863 12.9839 20.3103 13.081 20.1285 13.081V13.081Z" fill="#E57917"/>
<path d="M24.9936 13.1389C24.7113 13.1389 24.4824 12.91 24.4824 12.6277V11.6643C24.4824 11.3821 24.7113 11.1532 24.9936 11.1532C25.2759 11.1532 25.5047 11.3821 25.5047 11.6643V12.6277C25.5047 12.91 25.2759 13.1389 24.9936 13.1389Z" fill="#E57917"/>
<path d="M29.8714 13.0739C29.6951 13.0739 29.5235 12.9826 29.4287 12.8191L28.9454 11.9856C28.8038 11.7415 28.8869 11.4287 29.1311 11.2871C29.3753 11.1455 29.6881 11.2286 29.8297 11.4728L30.313 12.3062C30.4546 12.5504 30.3715 12.8632 30.1273 13.0048C30.0466 13.0517 29.9585 13.0739 29.8714 13.0739V13.0739Z" fill="#E57917"/>
</g>
<defs>
<filter id="filter0_d_22_9" x="6.5" y="7.66895" width="37.0001" height="36.6624" filterUnits="userSpaceOnUse" color-interpolation-filters="sRGB">
<feFlood flood-opacity="0" result="BackgroundImageFix"/>
<feColorMatrix in="SourceAlpha" type="matrix" values="0 0 0 0 0 0 0 0 0 0 0 0 0 0 0 0 0 0 127 0" result="hardAlpha"/>
<feOffset dy="1"/>
<feGaussianBlur stdDeviation="0.5"/>
<feComposite in2="hardAlpha" operator="out"/>
<feColorMatrix type="matrix" values="0 0 0 0 0 0 0 0 0 0 0 0 0 0 0 0 0 0 0.5 0"/>
<feBlend mode="normal" in2="BackgroundImageFix" result="effect1_dropShadow_22_9"/>
<feBlend mode="normal" in="SourceGraphic" in2="effect1_dropShadow_22_9" result="shape"/>
</filter>
</defs>
</svg>
