<svg xmlns="http://www.w3.org/2000/svg" width="60" height="60" fill="none" xmlns:v="https://vecta.io/nano"><g clip-path="url(#A)"><path d="M57.492 40.5h-9.248l1.652-.602c3.539-1.415 5.333-3.077 5.333-4.942 0-2.867-2.322-3.83-4.371-4.679-.878-.364-1.785-.741-2.529-1.252a.88.88 0 0 0-1.222.226.88.88 0 0 0 .226 1.222c.895.616 1.89 1.029 2.851 1.427 2.099.87 3.287 1.441 3.287 3.055 0 1.029-1.541 2.236-4.228 3.31-3.219 1.287-6.956 1.984-8.485 2.234H37.88c1.972-1.538 3.369-3.644 4.263-6.432 1.088-3.393 2.64-5.885 5.033-8.08.664-.609.959-1.469.856-2.286l5.013-3.729c.136-.101.324-.105.467-.009 1.086.729 2.203.929 3.23.577.81-.277 1.444-.858 1.787-1.635.356-.807.352-1.749-.011-2.585-.476-1.096-1.488-1.842-2.643-1.976.218-1.142-.191-2.332-1.094-3.114-.689-.597-1.587-.883-2.463-.785a2.99 2.99 0 0 0-2.095 1.216c-.643.874-.787 1.999-.417 3.254.049.165-.011.343-.147.442l-5.06 3.667c-.748-.343-1.657-.319-2.437.132-2.811 1.625-5.653 2.359-9.216 2.382-3.06.019-5.576.783-7.691 2.337-2.361 1.733-3.944 4.235-4.456 7.043-.516 2.828.112 5.627 1.767 7.882.462.629.995 1.197 1.585 1.698H13.017C6.254 39.138 2.966 35.766 2.966 30.192c0-4.24 1.895-8.611 5.199-11.992 3.571-3.654 8.341-5.667 13.43-5.667 5.83 0 11.891 2.127 16.629 5.835a.88.88 0 0 0 1.234-.151.88.88 0 0 0-.15-1.234c-5.041-3.945-11.497-6.209-17.712-6.209-5.566 0-10.782 2.201-14.687 6.196-3.622 3.706-5.7 8.525-5.7 13.22 0 4.76 2.103 8.21 6.259 10.308H2.509A2.51 2.51 0 0 0 0 43.009c0 1.383 1.125 2.509 2.509 2.509h3.187a.12.12 0 0 1 .112.075l.558 1.366a4.26 4.26 0 0 0 3.957 2.658h39.354a4.26 4.26 0 0 0 3.957-2.658l.558-1.365c.019-.046.063-.076.112-.076h3.187c1.383 0 2.508-1.126 2.508-2.509a2.51 2.51 0 0 0-2.508-2.509h0zm-6.801-23.718a2.17 2.17 0 0 0 .799-2.363c-.146-.493-.239-1.19.147-1.714a1.23 1.23 0 0 1 .874-.51c.391-.043.798.09 1.117.367a1.52 1.52 0 0 1 .475 1.623c-.138.44-.056.925.221 1.299s.711.598 1.172.598h0a1.52 1.52 0 0 1 1.407.94c.168.387.174.816.015 1.176-.101.228-.313.531-.749.681-.615.211-1.253-.087-1.68-.373a2.17 2.17 0 0 0-2.495.056l-4.752 3.535-1.35-1.839 4.798-3.476zm-26.71 20.98c-1.367-1.862-1.884-4.179-1.455-6.526.432-2.365 1.77-4.476 3.767-5.942 1.806-1.327 3.986-1.979 6.662-1.996 3.886-.025 6.996-.832 10.085-2.618.34-.196.742-.167.998.054a.73.73 0 0 1 .108.116l2.01 2.738c.028.038.053.08.074.127.141.316.048.712-.243.979-2.629 2.412-4.331 5.138-5.517 8.838-.818 2.549-2.093 4.433-3.9 5.759-.674.495-1.408.902-2.184 1.21H27.48c-1.403-.583-2.61-1.527-3.499-2.738h0zm33.511 5.998H18.744a.88.88 0 0 0-.879.879.88.88 0 0 0 .879.879h33.581l-.317.776a2.51 2.51 0 0 1-2.33 1.565H10.323a2.51 2.51 0 0 1-2.33-1.565l-.317-.776h6.979a.88.88 0 0 0 .879-.879.88.88 0 0 0-.879-.879H2.509a.75.75 0 1 1 0-1.502h54.983a.75.75 0 1 1 0 1.502h0z" fill="#ff9d2d"/></g><defs><clipPath id="A"><path fill="#fff" d="M0 0h60v60H0z"/></clipPath></defs></svg>