<svg xmlns="http://www.w3.org/2000/svg" width="60" height="60" fill="none" xmlns:v="https://vecta.io/nano"><g clip-path="url(#A)"><path d="M56.993 41.631v-2.214c0-.133-.01-.265-.023-.396.218-.131.421-.276.605-.435.815-.705 1.245-1.636 1.245-2.691 0-.903-.333-1.764-.907-2.429.451-.536.707-1.218.694-1.928a2.97 2.97 0 0 0-1.991-2.734 3.74 3.74 0 0 0 .368-1.622v-.645A3.25 3.25 0 0 0 60 23.301c0-.248-.052-6.13-4.59-11.715-2.306-2.839-5.359-5.087-9.075-6.682C41.841 2.974 36.345 1.994 30 1.992c-7.992.003-14.592 1.548-19.616 4.592a.88.88 0 1 0 .912 1.506C16.041 5.215 22.334 3.755 30 3.753c6.105.002 11.367.933 15.641 2.769 3.451 1.482 6.278 3.559 8.403 6.174 4.148 5.106 4.196 10.383 4.196 10.605 0 .819-.666 1.484-1.484 1.484H3.245c-.818 0-1.484-.666-1.484-1.484 0-.221.029-2.241 1.035-5.017 1.101-3.038 2.892-5.68 5.323-7.852a.88.88 0 1 0-1.173-1.313C.079 15.255 0 22.975 0 23.301a3.25 3.25 0 0 0 3.017 3.236v.645c0 .585.135 1.14.374 1.635a3.06 3.06 0 0 0-1.153.735 2.9 2.9 0 0 0-.845 2.099c.012.679.255 1.314.67 1.817-.574.665-.906 1.526-.906 2.428-.001 1.056.429 1.986 1.245 2.691.195.169.412.321.646.458a3.74 3.74 0 0 0-.021.373v2.212A3.25 3.25 0 0 0 0 44.866a13.19 13.19 0 0 0 13.172 13.172h33.656A13.19 13.19 0 0 0 60 44.866a3.25 3.25 0 0 0-3.007-3.235h0zm-.57-4.376c-.809.7-2.293.991-3.873.76-1.118-.164-1.707-.475-2.33-.805l-.439-.227 2-2.035c.249-.254.597-.4.953-.4h2.864a2.96 2.96 0 0 0 .805-.111 1.96 1.96 0 0 1 .656 1.46c0 .536-.214.993-.636 1.358h0zM4.778 26.546h50.445v.636c0 .683-.344 1.288-.867 1.65-.015.011-.03.02-.045.03a1.97 1.97 0 0 1-.115.07l-.04.023a2.09 2.09 0 0 1-.153.074 1.95 1.95 0 0 1-.187.069c-.007.002-.014.004-.021.006-.051.016-.103.029-.155.04l-.049.01c-.045.008-.091.016-.137.021l-.052.006c-.062.006-.124.01-.187.01H6.785a2.01 2.01 0 0 1-2.008-2.008v-.636zm-1.283 4.239a1.28 1.28 0 0 1 .906-.384h.428a3.75 3.75 0 0 0 1.957.549h46.428a3.89 3.89 0 0 0 .233-.008c.025-.001.049-.004.073-.006a3.78 3.78 0 0 0 .162-.017l.079-.01c.069-.01.137-.021.204-.035.028-.006.056-.013.085-.019l.138-.034c.035-.009.07-.019.104-.029s.074-.023.11-.035l.105-.035c.06-.022.12-.046.178-.071.035-.015.07-.032.105-.048s.065-.031.098-.047l.102-.053c.038-.021.077-.043.114-.065.023-.013.046-.025.069-.039h.48a1.2 1.2 0 0 1 1.193 1.17c.009.45-.266.877-.699 1.087h0c-.176.086-.361.13-.548.13h-2.864c-.825 0-1.631.337-2.209.927l-3.568 3.632c-.85.866-2.199.983-3.184.317l-.064-.044a2.4 2.4 0 0 1-.162-.125l-4.623-3.961a3.1 3.1 0 0 0-2.015-.745H4.347a1.18 1.18 0 0 1-.523-.123h0a1.19 1.19 0 0 1-.669-1.047c-.006-.307.115-.602.341-.833h0zm-.577 5.112a1.96 1.96 0 0 1 .65-1.453 2.93 2.93 0 0 0 .779.105H36.91a1.34 1.34 0 0 1 .87.321l3.655 3.132a6.22 6.22 0 0 1-.229.004c-1.159 0-1.685-.315-2.352-.715-.755-.452-1.611-.965-3.257-.965s-2.501.513-3.257.965c-.666.399-1.193.715-2.352.715s-1.686-.315-2.352-.715c-.755-.452-1.611-.965-3.257-.965s-2.502.513-3.257.965c-.667.399-1.193.715-2.352.715s-1.686-.315-2.352-.715c-.755-.452-1.611-.965-3.257-.965-1.739 0-2.587.45-3.407.884-.623.33-1.211.641-2.329.805-1.58.231-3.063-.06-3.872-.759a1.73 1.73 0 0 1-.635-1.359h0zm43.91 20.382H13.172c-6.292 0-11.412-5.12-11.412-11.412 0-.818.666-1.484 1.484-1.484h39.461a.88.88 0 1 0 0-1.761H4.788v-1.928c.5.104 1.033.159 1.587.159.426 0 .863-.032 1.306-.097 1.419-.208 2.205-.624 2.898-.991.716-.38 1.282-.679 2.583-.679 1.159 0 1.686.315 2.352.715.755.452 1.611.965 3.257.965s2.501-.513 3.256-.965c.667-.399 1.193-.715 2.352-.715s1.686.315 2.352.715c.755.452 1.611.965 3.257.965s2.501-.513 3.256-.965c.666-.399 1.193-.715 2.352-.715s1.686.315 2.352.715c.755.452 1.611.965 3.257.965.784 0 1.441-.114 2.073-.358.596.295 1.244.442 1.893.442 1.108 0 2.214-.428 3.042-1.27l.246-.25c.331.117.62.268.938.437.694.367 1.479.783 2.898.991.443.065.881.097 1.306.097.569 0 1.117-.058 1.63-.169v1.937h-8.431a.88.88 0 1 0 0 1.761h9.954c.819 0 1.484.666 1.484 1.484a11.43 11.43 0 0 1-11.412 11.412h0z" fill="#ff9d2d"/></g><defs><clipPath id="A"><path fill="#fff" d="M0 0h60v60H0z"/></clipPath></defs></svg>